HIERARCHY
ROOT joint_Root
{
	OFFSET 0.0 0.0 0.0
	CHANNELS 6 Xposition Yposition Zposition Zrotation Xrotation Yrotation 
	JOINT Hips
	{
		OFFSET -0.726466 93.3139 -2.00062
		CHANNELS 6 Xposition Yposition Zposition Zrotation Xrotation Yrotation 
		JOINT Spine
		{
			OFFSET 15.7357 0.0 0.0
			CHANNELS 6 Xposition Yposition Zposition Zrotation Xrotation Yrotation 
			JOINT Chest
			{
				OFFSET 8.98455 -0.406207 0.0
				CHANNELS 6 Xposition Yposition Zposition Zrotation Xrotation Yrotation 
				JOINT Neck
				{
					OFFSET 16.3773 0.0 0.0
					CHANNELS 6 Xposition Yposition Zposition Zrotation Xrotation Yrotation 
					JOINT Head
					{
						OFFSET 6.45672 0.0 0.0
						CHANNELS 6 Xposition Yposition Zposition Zrotation Xrotation Yrotation 
						End Site
						{
							OFFSET 0.0 0.0 0.0
						}
					}
				}
				JOINT Shoulder_L
				{
					OFFSET 12.9942 -0.242716 4.98039
					CHANNELS 6 Xposition Yposition Zposition Zrotation Xrotation Yrotation 
					JOINT UpperArm_L
					{
						OFFSET 5.34809 0.0 0.0
						CHANNELS 6 Xposition Yposition Zposition Zrotation Xrotation Yrotation 
						JOINT LowerArm_L
						{
							OFFSET 24.3286 1.87007e-05 0.0
							CHANNELS 6 Xposition Yposition Zposition Zrotation Xrotation Yrotation 
							JOINT Hand_L
							{
								OFFSET 22.2916 0.0 0.0
								CHANNELS 6 Xposition Yposition Zposition Zrotation Xrotation Yrotation 
								End Site
								{
									OFFSET 0.0 0.0 0.0
								}
							}
						}
					}
				}
				JOINT Shoulder_R
				{
					OFFSET 12.9945 -0.242716 -4.98039
					CHANNELS 6 Xposition Yposition Zposition Zrotation Xrotation Yrotation 
					JOINT UpperArm_R
					{
						OFFSET -5.34813 0.0 0.0
						CHANNELS 6 Xposition Yposition Zposition Zrotation Xrotation Yrotation 
						JOINT LowerArm_R
						{
							OFFSET -24.3289 0.000322201 0.0
							CHANNELS 6 Xposition Yposition Zposition Zrotation Xrotation Yrotation 
							JOINT Hand_R
							{
								OFFSET -22.2915 -0.000108084 0.0
								CHANNELS 6 Xposition Yposition Zposition Zrotation Xrotation Yrotation 
								End Site
								{
									OFFSET 0.0 0.0 0.0
								}
							}
						}
					}
				}
			}
		}
		JOINT UpperLeg_L
		{
			OFFSET -2.19248 -6.46944 0.0
			CHANNELS 6 Xposition Yposition Zposition Zrotation Xrotation Yrotation 
			JOINT LowerLeg_L
			{
				OFFSET 39.0811 0.0 -1.23785e-05
				CHANNELS 6 Xposition Yposition Zposition Zrotation Xrotation Yrotation 
				JOINT Foot_L
				{
					OFFSET 40.9854 0.0 -1.26872e-05
					CHANNELS 6 Xposition Yposition Zposition Zrotation Xrotation Yrotation 
					JOINT Toes_L
					{
						OFFSET 11.7543 0.0 0.0
						CHANNELS 6 Xposition Yposition Zposition Zrotation Xrotation Yrotation 
						End Site
						{
							OFFSET 0.0 0.0 0.0
						}
					}
				}
			}
		}
		JOINT UpperLeg_R
		{
			OFFSET -2.19251 6.46944 0.0
			CHANNELS 6 Xposition Yposition Zposition Zrotation Xrotation Yrotation 
			JOINT LowerLeg_R
			{
				OFFSET -39.0811 -0.00228153 -0.0401928
				CHANNELS 6 Xposition Yposition Zposition Zrotation Xrotation Yrotation 
				JOINT Foot_R
				{
					OFFSET -40.9854 0.0 0.0
					CHANNELS 6 Xposition Yposition Zposition Zrotation Xrotation Yrotation 
					JOINT Toes_R
					{
						OFFSET -11.7543 0.0 0.0
						CHANNELS 6 Xposition Yposition Zposition Zrotation Xrotation Yrotation 
						End Site
						{
							OFFSET 0.0 0.0 0.0
						}
					}
				}
			}
		}
	}
}
MOTION
Frames:	9
Frame Time:	0.0333333
0.000000 0.000000 0.000000 0.000000 0.000000 -0.000000 -1.319880 92.432200 423.774000 -86.505900 -6.190570 165.293000 15.735700 0.000005 -0.000001 61.733400 81.063100 -58.605900 8.984550 -0.406207 -0.000000 8.282160 -8.413260 6.868340 16.377300 -0.000001 -0.000001 1.827420 -0.534011 -0.708160 6.456720 -0.000001 -0.000000 -4.619160 5.716890 -1.065720 12.994200 -0.242716 4.980390 -86.740900 -9.880430 -71.641200 5.348090 -0.000007 -0.000001 -57.226300 18.792300 -23.427000 24.328600 0.000019 0.000005 -14.425100 -4.012010 -74.783500 22.291600 -0.000001 0.000005 1.210470 5.615460 -12.312400 12.994500 -0.242716 -4.980390 91.225800 -2.511610 -63.973700 -5.348130 -0.000001 -0.000004 -60.326900 25.937700 13.803500 -24.328900 0.000322 -0.000009 -8.405880 -6.350230 -53.181300 -22.291500 -0.000108 -0.000004 -0.412339 5.504670 -6.722710 -2.192480 -6.469440 -0.000000 -170.489000 -3.320290 3.697600 39.081100 -0.000007 -0.000012 0.040206 -0.076943 27.588500 40.985400 -0.000006 -0.000013 0.658707 -2.685890 -36.388800 11.754300 -0.000000 0.000003 -0.008490 -0.091999 -20.323600 -2.192510 6.469440 -0.000001 -167.740000 17.788500 142.111000 -39.081100 -0.002282 -0.040193 -0.022382 0.068992 20.432900 -40.985400 0.000008 0.000006 -9.761850 3.723830 -64.481900 -11.754300 -0.000006 -0.000006 -0.026799 -0.202401 -24.857800
0.000000 0.000000 0.000000 0.000000 0.000000 -0.000000 -0.912383 90.747300 416.372000 -87.484100 -5.631990 166.524000 15.735700 0.000005 -0.000001 63.983000 80.796100 -61.098200 8.984550 -0.406207 -0.000000 9.051310 -8.000360 6.406470 16.377300 -0.000001 -0.000001 2.117790 -0.924745 -0.763712 6.456720 -0.000001 -0.000000 -5.325670 5.791370 -1.396870 12.994200 -0.242716 4.980390 -87.099300 -9.028930 -72.106200 5.348090 -0.000007 -0.000001 -59.444100 20.763100 -19.448000 24.328600 0.000019 0.000005 -16.047700 -5.050050 -72.985300 22.291600 -0.000001 0.000005 2.727810 5.624020 -12.899800 12.994500 -0.242716 -4.980390 90.272000 -0.546604 -63.540600 -5.348130 -0.000001 -0.000004 -59.115400 26.591200 10.670900 -24.328900 0.000322 -0.000009 -9.623220 -7.002990 -54.277600 -22.291500 -0.000108 -0.000004 0.756200 5.507010 -6.818080 -2.192480 -6.469440 -0.000000 -172.502000 0.746752 3.479010 39.081100 -0.000007 -0.000012 0.022909 -0.028295 38.992200 40.985400 -0.000006 -0.000013 1.520410 -3.666050 -37.231600 11.754300 -0.000000 0.000003 -0.009465 -0.099608 -20.634600 -2.192510 6.469440 -0.000001 -166.035000 19.839500 140.116000 -39.081100 -0.002282 -0.040193 0.044240 -0.082951 26.263000 -40.985400 0.000008 0.000006 -0.041483 1.898680 -65.229800 -11.754300 -0.000006 -0.000006 -0.028694 -0.211416 -25.231200
0.000000 0.000000 0.000000 0.000000 0.000000 -0.000000 -0.468101 88.129500 408.813000 -86.797900 -4.536990 168.193000 15.735700 0.000005 -0.000001 70.176000 80.642900 -67.019600 8.984550 -0.406207 -0.000000 10.064300 -6.243570 6.864020 16.377300 -0.000001 -0.000001 2.300450 -1.137710 -1.016480 6.456720 -0.000001 -0.000000 -5.703660 5.179540 -1.866690 12.994200 -0.242716 4.980390 -87.630200 -7.380730 -72.143100 5.348090 -0.000007 -0.000001 -60.245700 24.536300 -16.807200 24.328600 0.000019 0.000005 -16.626000 -6.726860 -68.581300 22.291600 -0.000001 0.000005 2.718980 5.619230 -12.567300 12.994500 -0.242716 -4.980390 89.234600 1.561200 -63.879600 -5.348130 -0.000001 -0.000004 -56.791900 27.287000 6.456280 -24.328900 0.000322 -0.000009 -11.152100 -7.974270 -54.862100 -22.291500 -0.000108 -0.000004 1.173580 5.517550 -7.257430 -2.192480 -6.469440 -0.000000 -172.773000 1.626540 0.652051 39.081100 -0.000007 -0.000012 -0.024099 0.016751 55.203200 40.985400 -0.000006 -0.000013 2.248240 -3.982580 -36.400400 11.754300 -0.000000 0.000003 -0.008252 -0.090085 -20.245400 -2.192510 6.469440 -0.000001 -166.867000 17.603500 139.031000 -39.081100 -0.002282 -0.040193 -0.029434 0.040232 39.116400 -40.985400 0.000008 0.000006 5.853050 -3.117280 -62.981100 -11.754300 -0.000006 -0.000006 -0.022395 -0.180210 -23.940600
0.000000 0.000000 0.000000 0.000000 0.000000 -0.000000 -0.175927 84.843500 401.632000 -84.892300 -2.591910 171.890000 15.735700 0.000005 -0.000001 78.673800 79.720600 -74.847600 8.984550 -0.406207 -0.000000 12.554200 -3.839950 8.076780 16.377300 -0.000001 -0.000001 1.331400 -0.614507 -1.120740 6.456720 -0.000001 -0.000000 -5.002890 4.770970 -3.468450 12.994200 -0.242716 4.980390 -88.266300 -5.184030 -71.478400 5.348090 -0.000007 -0.000001 -61.538200 28.610400 -13.480800 24.328600 0.000019 0.000005 -14.356200 -7.898310 -61.767100 22.291600 -0.000001 0.000005 0.987066 5.611300 -12.039700 12.994500 -0.242716 -4.980390 88.353500 3.517440 -64.894900 -5.348130 -0.000001 -0.000004 -52.013600 28.340800 -0.789027 -24.328900 0.000322 -0.000009 -12.601100 -9.001870 -55.008000 -22.291500 -0.000108 -0.000004 2.104640 5.527300 -7.675860 -2.192480 -6.469440 -0.000000 -171.994000 1.072790 -3.342700 39.081100 -0.000007 -0.000012 -0.077219 0.021124 74.705000 40.985400 -0.000006 -0.000013 1.911890 -6.279120 -36.566400 11.754300 -0.000000 0.000003 -0.006477 -0.075117 -19.634300 -2.192510 6.469440 -0.000001 -168.250000 12.021700 141.794000 -39.081100 -0.002282 -0.040193 -0.164321 0.127003 52.839200 -40.985400 0.000008 0.000006 5.671030 -7.937300 -74.256500 -11.754300 -0.000006 -0.000006 -0.005239 -0.063761 -19.167500
0.000000 0.000000 0.000000 0.000000 0.000000 -0.000000 0.035260 82.389700 395.235000 -83.074300 -1.128230 173.700000 15.735700 0.000005 -0.000001 83.689000 78.992400 -79.222900 8.984550 -0.406207 -0.000000 14.223300 -2.139740 9.204060 16.377300 -0.000001 -0.000001 0.863053 0.252760 -0.638536 6.456720 -0.000001 -0.000000 -4.876910 4.749120 -5.140380 12.994200 -0.242716 4.980390 -88.834600 -3.303940 -70.557500 5.348090 -0.000007 -0.000001 -63.948800 31.781800 -8.952220 24.328600 0.000019 0.000005 -11.568100 -8.854980 -53.053600 22.291600 -0.000001 0.000005 -0.499567 5.593230 -10.942100 12.994500 -0.242716 -4.980390 87.742100 5.086580 -66.025100 -5.348130 -0.000001 -0.000004 -45.905300 28.220300 -12.402300 -24.328900 0.000322 -0.000009 -12.360200 -9.095520 -54.191100 -22.291500 -0.000108 -0.000004 3.704160 5.527600 -7.690260 -2.192480 -6.469440 -0.000000 -171.427000 0.325251 -11.607400 39.081100 -0.000007 -0.000012 -0.244204 -0.010856 92.547600 40.985400 -0.000006 -0.000013 5.654070 -6.847130 -38.356000 11.754300 -0.000000 0.000003 -0.007618 -0.084899 -20.033600 -2.192510 6.469440 -0.000001 -167.206000 12.641200 145.511000 -39.081100 -0.002282 -0.040193 -0.000596 0.002227 59.620100 -40.985400 0.000008 0.000006 6.712580 -7.845280 -82.659600 -11.754300 -0.000006 -0.000006 -0.003839 -0.049754 -18.596900
0.000000 0.000000 0.000000 0.000000 0.000000 -0.000000 -0.064742 80.899700 389.102000 -84.084000 0.450480 173.562000 15.735700 0.000005 -0.000001 88.299400 79.165600 -84.232800 8.984550 -0.406207 -0.000000 13.921500 -0.417307 8.186850 16.377300 -0.000001 -0.000001 1.490710 0.061562 -0.173761 6.456720 -0.000001 -0.000000 -4.011750 3.372290 -5.201380 12.994200 -0.242716 4.980390 -88.870400 -3.086820 -69.889300 5.348090 -0.000007 -0.000001 -67.429200 34.332000 -4.145940 24.328600 0.000019 0.000005 -5.862010 -6.231290 -43.395000 22.291600 -0.000001 0.000005 -3.538880 5.578790 -10.139500 12.994500 -0.242716 -4.980390 87.899300 4.993990 -67.151700 -5.348130 -0.000001 -0.000004 -42.676600 25.719400 -21.751900 -24.328900 0.000322 -0.000009 -13.322500 -9.050470 -56.401200 -22.291500 -0.000108 -0.000004 4.806380 5.530120 -7.800440 -2.192480 -6.469440 -0.000000 -173.882000 -1.248520 -22.874100 39.081100 -0.000007 -0.000012 -0.396165 -0.107788 105.222000 40.985400 -0.000006 -0.000013 8.891120 -6.498400 -39.812100 11.754300 -0.000000 0.000003 -0.008449 -0.091672 -20.310200 -2.192510 6.469440 -0.000001 -169.398000 13.075300 149.222000 -39.081100 -0.002282 -0.040193 0.211409 -0.107592 62.674300 -40.985400 0.000008 0.000006 6.523820 -7.152580 -89.223400 -11.754300 -0.000006 -0.000006 -0.003235 -0.043230 -18.331300
0.000000 0.000000 0.000000 0.000000 0.000000 -0.000000 -0.485138 80.673700 382.531000 -85.158800 3.616230 173.528000 15.735700 0.000005 -0.000001 95.206500 79.306700 -91.976100 8.984550 -0.406207 -0.000000 13.487500 2.080850 6.216280 16.377300 -0.000001 -0.000001 1.971780 -0.027540 0.647222 6.456720 -0.000001 -0.000000 -3.200160 1.377710 -4.891640 12.994200 -0.242716 4.980390 -88.854600 -2.918970 -68.564100 5.348090 -0.000007 -0.000001 -70.160800 33.207500 2.961350 24.328600 0.000019 0.000005 -0.304075 -0.370797 -39.330200 22.291600 -0.000001 0.000005 -6.564750 5.564760 -9.420460 12.994500 -0.242716 -4.980390 88.235200 4.411170 -68.169100 -5.348130 -0.000001 -0.000004 -39.540900 23.398900 -29.590800 -24.328900 0.000322 -0.000009 -16.031900 -9.040110 -61.326900 -22.291500 -0.000108 -0.000004 4.268590 5.539320 -8.211660 -2.192480 -6.469440 -0.000000 -176.948000 -4.343400 -32.576300 39.081100 -0.000007 -0.000012 -0.380216 -0.145024 110.879000 40.985400 -0.000006 -0.000013 8.958080 -6.986610 -43.932400 11.754300 -0.000000 0.000003 -0.010190 -0.105061 -20.857600 -2.192510 6.469440 -0.000001 -173.024000 13.419100 155.519000 -39.081100 -0.002282 -0.040193 0.211586 -0.114077 61.303300 -40.985400 0.000008 0.000006 6.181250 -3.849950 -92.588200 -11.754300 -0.000006 -0.000006 -0.003780 -0.049128 -18.571400
0.000000 0.000000 0.000000 0.000000 0.000000 -0.000000 -1.192930 81.951900 375.343000 -87.414400 6.779240 173.037000 15.735700 0.000005 -0.000001 101.266000 79.470700 -99.346200 8.984550 -0.406207 -0.000000 12.843600 4.158050 3.371590 16.377300 -0.000001 -0.000001 2.205580 -0.240066 1.153730 6.456720 -0.000001 -0.000000 -2.886360 -0.472943 -4.599660 12.994200 -0.242716 4.980390 -88.970500 -2.437770 -67.095900 5.348090 -0.000007 -0.000001 -70.408500 31.994500 9.702660 24.328600 0.000019 0.000005 -1.140600 -1.401130 -39.154000 22.291600 -0.000001 0.000005 -7.469740 5.551560 -8.779690 12.994500 -0.242716 -4.980390 88.697300 3.404630 -69.047700 -5.348130 -0.000001 -0.000004 -37.263200 21.040200 -35.577200 -24.328900 0.000322 -0.000009 -17.045700 -7.824870 -66.054800 -22.291500 -0.000108 -0.000004 4.392240 5.535360 -8.033250 -2.192480 -6.469440 -0.000000 178.785000 -6.764080 -40.030600 39.081100 -0.000007 -0.000012 -0.272078 -0.091293 108.550000 40.985400 -0.000006 -0.000013 7.693540 -6.032260 -49.734200 11.754300 -0.000000 0.000003 -0.010090 -0.104322 -20.827400 -2.192510 6.469440 -0.000001 -178.430000 12.943900 163.234000 -39.081100 -0.002282 -0.040193 0.154825 -0.105896 55.064700 -40.985400 0.000008 0.000006 5.675240 -0.367791 -91.289400 -11.754300 -0.000006 -0.000006 -0.010193 -0.105070 -20.854200
0.000000 0.000000 0.000000 0.000000 0.000000 -0.000000 -1.885310 84.490400 367.743000 -89.694300 8.685070 171.930000 15.735700 0.000005 -0.000001 105.652000 79.958000 -105.078000 8.984550 -0.406207 -0.000000 11.583500 5.393300 0.600646 16.377300 -0.000001 -0.000001 2.586480 -0.326889 1.319140 6.456720 -0.000001 -0.000000 -2.279690 -2.094160 -3.785420 12.994200 -0.242716 4.980390 -88.680200 -2.937580 -65.794000 5.348090 -0.000007 -0.000001 -70.376300 30.237400 14.978300 24.328600 0.000019 0.000005 -1.618570 -1.981250 -39.260700 22.291600 -0.000001 0.000005 -7.522620 5.561150 -9.243370 12.994500 -0.242716 -4.980390 89.125900 2.338570 -69.499400 -5.348130 -0.000001 -0.000004 -37.196900 19.379000 -38.986800 -24.328900 0.000322 -0.000009 -16.435100 -6.339300 -69.477200 -22.291500 -0.000108 -0.000004 4.224880 5.524370 -7.549530 -2.192480 -6.469440 -0.000000 175.399000 -7.380610 -44.832900 39.081100 -0.000007 -0.000012 -0.129417 -0.020669 99.078000 40.985400 -0.000006 -0.000013 5.264920 -4.340400 -55.217000 11.754300 -0.000000 0.000003 -0.005210 -0.063494 -19.160300 -2.192510 6.469440 -0.000001 176.753000 11.489000 170.435000 -39.081100 -0.002282 -0.040193 0.033548 -0.029579 45.676500 -40.985400 0.000008 0.000006 5.061170 2.231110 -80.739600 -11.754300 -0.000006 -0.000006 -3.115680 -2.830600 -29.367200
